<svg viewBox="0 0 976 1001" fill="none" xmlns="http://www.w3.org/2000/svg">
  <path
    d="M266.849 800.547C24.4421 1042.95 2.23878 1065.16 0.205061 667.123L0.0220403 600.41L1.22755e-08 533.698C-2.746e-05 0 0.0012207 0 533.698 0C1067.4 0 1067.4 0 800.547 266.849L266.849 800.547Z"
    fill="#add7ff" />
  <path
    d="M260.495 858.435C23.86 1048.26 2.18547 1065.64 0.200178 667.167L0.0215155 600.415L1.22755e-08 533.698C-2.68059e-05 0 0.00115967 0.00025177 520.989 115.775C1041.98 231.551 1041.98 231.551 781.484 440.512L260.495 858.435Z"
    fill="#48a8ff" />
  <path
    d="M243.85 908.925C22.3355 1052.88 2.04582 1066.07 0.187387 667.206L0.0201407 600.419L1.22755e-08 533.698C-2.50923e-05 0 0.00109863 0.000488281 487.7 216.755C975.399 433.511 975.399 433.511 731.549 591.982L243.85 908.925Z"
    fill="#0d8aff" />
</svg>
